<svg width="36" height="26" viewBox="0 0 36 26" fill="none" xmlns="http://www.w3.org/2000/svg">
<path d="M15.3485 23.3261C12.697 21.1272 9.35741 21.1272 2.62121 21.1272V0.786501C8.98485 -0.313053 15.3485 1.95967 15.3485 4.08499V23.3261ZM15.3485 23.3261C17.4697 20.6087 27.0152 20.0652 24.8939 20.0652M5.80303 9.73913C7.92424 9.73913 10.5758 9.73913 12.1667 11.3696M5.80303 5.93478C7.92424 5.93478 10.5758 5.93478 12.1667 7.56522M5.80303 13.5435C7.92424 13.5435 10.5758 13.5435 12.1667 15.1739M15.3485 4.04402C15.3485 1.94294 21.1818 -0.0434968 27.5455 1.04352V6.47836M17.4697 24.413H27.0152V19.5217M2.62121 4.84783H0.5V24.413H13.2273M17.4697 23.8696C17.4697 24.4699 16.9394 25.5 15.3485 25.5C13.7576 25.5 13.2273 24.4699 13.2273 23.8696M31.2576 13C31.2576 16.902 28.1711 20.0652 24.3636 20.0652C20.5562 20.0652 17.4697 16.902 17.4697 13C17.4697 9.09799 20.5562 5.93478 24.3636 5.93478C28.1711 5.93478 31.2576 9.09799 31.2576 13ZM35.135 23.3261C35.3609 23.5568 35.5 23.8717 35.5 24.2189C35.5 24.9264 34.9223 25.5 34.2097 25.5C33.8932 25.5 33.6033 25.3868 33.3788 25.199L28.6061 18.9783L29.6667 17.8913L35.135 23.3261Z" stroke="#8A6240"/>
</svg>
