<svg width="22" height="27" viewBox="0 0 22 27" fill="none" xmlns="http://www.w3.org/2000/svg">
<path d="M20.4569 17.8387C20.0874 17.5839 19.6437 17.4355 19.1667 17.4355C17.878 17.4355 16.8333 18.5187 16.8333 19.8548C16.8333 21.191 17.878 22.2742 19.1667 22.2742C19.6437 22.2742 20.0874 22.1257 20.4569 21.871M20.4569 17.8387C21.0856 18.2721 21.5 19.0133 21.5 19.8548C21.5 20.6964 21.0856 21.4375 20.4569 21.871M20.4569 17.8387V13L17.2222 13.9655M11 15.8226V25.5M11 15.8226L4.96688 13.9655M11 15.8226L17.2222 13.9655M1.66667 17.7592V13L4.96688 13.9655M20.4569 21.871V22.5309L11 25.5M11 25.5L1.66667 22.5309C1.66667 22.5309 1.66667 22.1772 1.66667 21.9505M1.66667 21.9505C2.00987 22.1564 2.40833 22.2742 2.83333 22.2742C4.12199 22.2742 5.16666 21.191 5.16666 19.8548C5.16666 18.5187 4.12199 17.4355 2.83333 17.4355C1.54467 17.4355 0.5 18.5187 0.5 19.8548C0.5 20.7503 0.969231 21.5322 1.66667 21.9505ZM4.96688 13.9655C4.96688 13.9655 6.72222 11.7903 11 11.7903C15.2778 11.7903 17.2222 13.9655 17.2222 13.9655M16.0555 5.74194C16.0555 8.63698 13.7921 10.9839 11 10.9839C8.20789 10.9839 5.94444 8.63698 5.94444 5.74194C5.94444 2.84689 8.20789 0.5 11 0.5C13.7921 0.5 16.0555 2.84689 16.0555 5.74194Z" stroke="#8A6240"/>
</svg>
