<svg width="31" height="26" viewBox="0 0 31 26" fill="none" xmlns="http://www.w3.org/2000/svg">
<path d="M10.7408 22.5V3.5H3.57224V22.5H10.7408ZM10.7408 22.5H16.8853V8.5M10.7408 22.5V8.5M5.6204 9H8.69265M10.7408 5V0.5H16.8853V5M10.7408 5H16.8853M10.7408 5V8.5M16.8853 5V8.5M10.7408 8.5H16.8853M18.3312 8.33933L16.9704 4.60574L23.0298 2.49978L24.3527 6.12926M18.3312 8.33933L24.3527 6.12926M18.3312 8.33933L22.175 18.8849M24.3527 6.12926L29.5 20.2511L23.4406 22.3571L22.175 18.8849M22.175 18.8849L28.1502 16.5M0.5 22.5H29.1743V25.5H0.5V22.5Z" stroke="#4D2D18"/>
</svg>
